<?xml version="1.0" encoding="UTF-8" standalone="no"?>
<svg
   xmlns:dc="http://purl.org/dc/elements/1.1/"
   xmlns:cc="http://creativecommons.org/ns#"
   xmlns:rdf="http://www.w3.org/1999/02/22-rdf-syntax-ns#"
   xmlns:svg="http://www.w3.org/2000/svg"
   xmlns="http://www.w3.org/2000/svg"
   xmlns:sodipodi="http://sodipodi.sourceforge.net/DTD/sodipodi-0.dtd"
   xmlns:inkscape="http://www.inkscape.org/namespaces/inkscape"
   id="svg8"
   version="1.1"
   viewBox="0 0 100 100"
   sodipodi:docname="icon_pdf.svg"
   inkscape:version="1.0.2 (e86c870879, 2021-01-15)"
   width="100"
   height="100">
  <metadata
     id="metadata18">
    <rdf:RDF>
      <cc:Work
         rdf:about="">
        <dc:format>image/svg+xml</dc:format>
        <dc:type
           rdf:resource="http://purl.org/dc/dcmitype/StillImage" />
        <dc:title />
      </cc:Work>
    </rdf:RDF>
  </metadata>
  <defs
     id="defs16" />
  <sodipodi:namedview
     pagecolor="#ffffff"
     bordercolor="#666666"
     borderopacity="1"
     objecttolerance="10"
     gridtolerance="10"
     guidetolerance="10"
     inkscape:pageopacity="0"
     inkscape:pageshadow="2"
     inkscape:window-width="1920"
     inkscape:window-height="1016"
     id="namedview14"
     showgrid="false"
     inkscape:zoom="6.5820707"
     inkscape:cx="1.8336189"
     inkscape:cy="61.843924"
     inkscape:window-x="0"
     inkscape:window-y="27"
     inkscape:window-maximized="1"
     inkscape:current-layer="layer1"
     inkscape:document-rotation="0" />
  <g
     id="layer1"
     transform="matrix(1.6028451,0,0,1.6028467,67.82424,-198.46704)">
    <!-- -93.732 -->
    <path
       fill="#ff2116"
       stroke="none"
       d="m -29.633,123.947 c -3.552,0 -6.443,2.894 -6.443,6.446 v 49.498 c 0,3.551 2.891,6.445 6.443,6.445 h 37.85 c 3.552,0 6.443,-2.893 6.443,-6.445 v -40.702 c 0,0 0.102,-1.191 -0.416,-2.351 a 6.516,6.516 0 0 0 -1.275,-1.844 1.058,1.058 0 0 0 -0.006,-0.008 l -9.39,-9.21 A 1.058,1.058 0 0 0 3.557,125.76 c 0,0 -0.802,-0.764 -1.99,-1.274 -1.4,-0.6 -2.842,-0.537 -2.842,-0.537 l 0.021,-0.002 z"
       id="path2" />
    <path
       fill="#f5f5f5"
       stroke="none"
       d="m -29.633,126.064 h 28.38 a 1.058,1.058 0 0 0 0.02,0 c 0,0 1.135,0.011 1.965,0.368 a 5.385,5.385 0 0 1 1.373,0.869 l 9.368,9.19 c 0,0 0.564,0.595 0.838,1.208 0.22,0.495 0.234,1.4 0.234,1.4 a 1.058,1.058 0 0 0 -0.002,0.046 v 40.746 a 4.294,4.294 0 0 1 -4.326,4.328 h -37.85 a 4.294,4.294 0 0 1 -4.326,-4.328 v -49.498 a 4.294,4.294 0 0 1 4.326,-4.328 z"
       id="path4" />
    <path
       fill="#ff2116"
       stroke-width="1"
       d="m -25.812408,171.41363 c -1.771015,-1.77221 0.145963,-4.20614 5.348318,-6.79211 l 3.273213,-1.62629 1.275953,-2.7903 a 109.85395,109.85395 0 0 0 2.325675,-5.56482 l 1.050932,-2.77452 -0.723732,-2.05321 c -0.890375,-2.52395 -1.209056,-6.31774 -0.643455,-7.6825 0.766307,-1.84764 3.271999,-1.65789 4.2645463,0.32234 0.776036,1.54721 0.695756,4.34847 -0.222594,7.88198 l -0.7541403,2.89613 0.6641303,1.12636 c 0.364907,0.62034 1.43165,2.09093 2.369461,3.26834 l 1.7625,2.1931 2.1930901,-0.28585 c 6.9697179,-0.90983 9.3562082,0.63615 9.3562082,2.85235 0,2.7964 -5.47238485,3.0275 -10.0677782,-0.2007 -1.0339011,-0.72615 -1.7430351,-1.44745 -1.7430351,-1.44745 0,0 -2.879116,0.58625 -4.2961693,0.96822 -1.463276,0.3941 -2.19309,0.64102 -4.335092,1.36473 0,0 -0.752927,1.0923 -1.241901,1.88537 -1.823317,2.95332 -3.951939,5.40062 -5.471167,6.29222 -1.702899,0.9974 -3.486078,1.0643 -4.384963,0.16661 z m 2.780589,-0.99374 c 0.997413,-0.61547 3.012914,-2.99956 4.408074,-5.21209 l 0.564389,-0.89647 -2.572593,1.2942 c -3.972616,1.99729 -5.789854,3.88019 -4.845961,5.0187 0.531547,0.6398 1.167702,0.5875 2.446091,-0.20434 z m 25.8086377,-7.2434 c 0.9743011,-0.68237 0.8332035,-2.05807 -0.2675985,-2.61276 -0.8575308,-0.4306 -1.54842125,-0.51936 -3.7743527,-0.48651 -1.3683995,0.0924 -3.568787,0.36855 -3.9409922,0.45248 0,0 1.2078396,0.83563 1.7442541,1.14337 0.714001,0.40746 2.4509571,1.16405 3.71839965,1.55206 1.24919765,0.38316 1.97292945,0.343 2.52028965,-0.0486 z m -10.3767314,-4.3132 c -0.589932,-0.62034 -1.592209,-1.91334 -2.228362,-2.87546 -0.8307733,-1.08986 -1.2479833,-1.8586 -1.2479833,-1.8586 0,0 -0.608177,1.95348 -1.106881,3.1297 l -1.554505,3.84489 -0.45005,0.87211 c 0,0 2.396219,-0.78575 3.616222,-1.10444 1.2917703,-0.33696 3.9142363,-0.85266 3.9142363,-0.85266 z m -3.3449783,-13.41156 c 0.150827,-1.26256 0.215296,-2.52269 -0.190969,-3.15764 -1.123909,-1.22852 -2.481364,-0.20435 -2.251474,2.71854 0.07664,0.98405 0.321119,2.66382 0.648319,3.70017 l 0.59358,1.88413 0.41721,-1.4195 c 0.23111,-0.77968 0.58385,-2.45701 0.78455,-3.7257 z"
       id="path6"
       style="fill:#ff2116;fill-opacity:1" />
  </g>
</svg>
