<?xml version="1.0" encoding="UTF-8" standalone="no"?>
<svg
   xmlns:dc="http://purl.org/dc/elements/1.1/"
   xmlns:cc="http://creativecommons.org/ns#"
   xmlns:rdf="http://www.w3.org/1999/02/22-rdf-syntax-ns#"
   xmlns:svg="http://www.w3.org/2000/svg"
   xmlns="http://www.w3.org/2000/svg"
   xmlns:sodipodi="http://sodipodi.sourceforge.net/DTD/sodipodi-0.dtd"
   xmlns:inkscape="http://www.inkscape.org/namespaces/inkscape"
   id="svg8"
   version="1.1"
   viewBox="0 0 100 100"
   sodipodi:docname="icon_pdf-a5.svg"
   inkscape:version="1.0.2 (e86c870879, 2021-01-15)"
   width="100"
   height="100">
  <metadata
     id="metadata18">
    <rdf:RDF>
      <cc:Work
         rdf:about="">
        <dc:format>image/svg+xml</dc:format>
        <dc:type
           rdf:resource="http://purl.org/dc/dcmitype/StillImage" />
        <dc:title />
      </cc:Work>
    </rdf:RDF>
  </metadata>
  <defs
     id="defs16" />
  <sodipodi:namedview
     pagecolor="#ffffff"
     bordercolor="#666666"
     borderopacity="1"
     objecttolerance="10"
     gridtolerance="10"
     guidetolerance="10"
     inkscape:pageopacity="0"
     inkscape:pageshadow="2"
     inkscape:window-width="1920"
     inkscape:window-height="1016"
     id="namedview14"
     showgrid="false"
     inkscape:zoom="6.5820707"
     inkscape:cx="27.30873"
     inkscape:cy="45.939871"
     inkscape:window-x="0"
     inkscape:window-y="27"
     inkscape:window-maximized="1"
     inkscape:current-layer="layer1"
     inkscape:document-rotation="0" />
  <g
     id="layer1"
     transform="matrix(1.6028451,0,0,1.6028467,67.82424,-198.46704)">
    <!-- -93.732 -->
    <path
       fill="#ff2116"
       stroke="none"
       d="m -29.633,123.947 c -3.552,0 -6.443,2.894 -6.443,6.446 v 49.498 c 0,3.551 2.891,6.445 6.443,6.445 h 37.85 c 3.552,0 6.443,-2.893 6.443,-6.445 v -40.702 c 0,0 0.102,-1.191 -0.416,-2.351 a 6.516,6.516 0 0 0 -1.275,-1.844 1.058,1.058 0 0 0 -0.006,-0.008 l -9.39,-9.21 A 1.058,1.058 0 0 0 3.557,125.76 c 0,0 -0.802,-0.764 -1.99,-1.274 -1.4,-0.6 -2.842,-0.537 -2.842,-0.537 l 0.021,-0.002 z"
       id="path2" />
    <path
       fill="#f5f5f5"
       stroke="none"
       d="m -29.633,126.064 h 28.38 a 1.058,1.058 0 0 0 0.02,0 c 0,0 1.135,0.011 1.965,0.368 a 5.385,5.385 0 0 1 1.373,0.869 l 9.368,9.19 c 0,0 0.564,0.595 0.838,1.208 0.22,0.495 0.234,1.4 0.234,1.4 a 1.058,1.058 0 0 0 -0.002,0.046 v 40.746 a 4.294,4.294 0 0 1 -4.326,4.328 h -37.85 a 4.294,4.294 0 0 1 -4.326,-4.328 v -49.498 a 4.294,4.294 0 0 1 4.326,-4.328 z"
       id="path4" />
    <path
       fill="#ff2116"
       stroke-width="0.833333"
       d="m -28.939392,163.5975 c -1.771014,-1.77223 0.145963,-4.20616 5.348317,-6.79213 l 3.273214,-1.62627 1.275957,-2.79032 a 109.85397,109.85397 0 0 0 2.325673,-5.56483 l 1.050931,-2.77451 -0.723732,-2.05321 c -0.890372,-2.52393 -1.209057,-6.31775 -0.643452,-7.6825 0.766304,-1.84764 3.271998,-1.65789 4.264544,0.32233 0.776036,1.54721 0.695757,4.34848 -0.222593,7.88199 l -0.75414,2.89614 0.66413,1.12635 c 0.364906,0.62034 1.43165,2.09092 2.369461,3.26835 l 1.7625003,2.19309 2.1930894,-0.28585 c 6.96971968,-0.90983 9.3562101,0.63616 9.3562101,2.85236 0,2.7964 -5.4723854,3.02751 -10.0677784,-0.2007 -1.0339021,-0.72616 -1.7430381,-1.44746 -1.7430381,-1.44746 0,0 -2.8791143,0.58628 -4.2961693,0.96822 -1.463275,0.3941 -2.193089,0.64102 -4.335092,1.36475 0,0 -0.752925,1.09229 -1.2419,1.88535 -1.823317,2.95331 -3.95194,5.40062 -5.471169,6.29221 -1.702898,0.99741 -3.486076,1.06431 -4.384963,0.16664 z m 2.78059,-0.99376 c 0.997412,-0.61548 3.012913,-2.99954 4.408074,-5.21209 l 0.564389,-0.89645 -2.572592,1.2942 c -3.972619,1.99726 -5.789855,3.88017 -4.845963,5.01868 0.531548,0.63981 1.167702,0.5875 2.446092,-0.20434 z m 25.80864018,-7.2434 c 0.9743012,-0.68238 0.8332039,-2.05808 -0.2675983,-2.61274 -0.85753088,-0.43059 -1.54842108,-0.51938 -3.77435248,-0.48654 -1.3684004,0.0924 -3.5687881,0.36856 -3.9409931,0.45249 0,0 1.2078411,0.83563 1.7442542,1.14337 0.714001,0.40748 2.4509572,1.16405 3.7184002,1.55207 1.2491975,0.38315 1.97292928,0.34301 2.52028948,-0.0487 z m -10.37673318,-4.3132 c -0.589932,-0.62034 -1.592209,-1.91333 -2.228363,-2.87547 -0.830772,-1.08985 -1.247982,-1.85859 -1.247982,-1.85859 0,0 -0.608177,1.95347 -1.106883,3.12969 l -1.554504,3.8449 -0.45005,0.87212 c 0,0 2.39622,-0.78576 3.616225,-1.10445 1.29177,-0.33693 3.9142333,-0.85266 3.9142333,-0.85266 z m -3.344978,-13.41154 c 0.150828,-1.26258 0.215295,-2.52272 -0.190968,-3.15766 -1.123912,-1.22852 -2.481366,-0.20435 -2.251475,2.71855 0.07663,0.98404 0.321119,2.66382 0.648319,3.70016 l 0.59358,1.88413 0.41721,-1.41948 c 0.231109,-0.77969 0.583851,-2.45704 0.78455,-3.7257 z"
       id="path6" />
    <g
       aria-label="A5 "
       transform="scale(1.0484294,0.95380767)"
       id="text16"
       style="font-style:normal;font-variant:normal;font-weight:normal;font-stretch:normal;font-size:25.3897px;line-height:1.25;font-family:Roboto;-inkscape-font-specification:Roboto;fill:#000000;fill-opacity:1;stroke:none;stroke-width:0.595071">
      <path
         d="m -18.030566,191.16573 6.164165,-16.55909 h 3.161694 l 6.1982841,16.55909 h -3.6393594 l -1.1372999,-3.4119 h -5.9935698 l -1.1373,3.4119 z m 5.675127,-6.17554 h 4.151144 l -2.069886,-6.22103 z"
         style="font-style:normal;font-variant:normal;font-weight:bold;font-stretch:normal;font-size:23.2919px;font-family:Roboto;-inkscape-font-specification:'Roboto Bold'"
         id="path15" />
      <path
         d="m 1.8039436,183.65955 -2.61578957,-0.63689 0.94395886,-8.41602 H 9.4124795 v 2.72952 h -6.573593 l -0.4094279,3.57112 q 1.1372998,-0.62551 2.4793136,-0.62551 2.4110757,0 3.7303435,1.46711 1.3192678,1.46712 1.3192678,4.09428 0,2.20636 -1.3647598,3.87819 -1.3647598,1.67184 -4.2193824,1.67184 -2.1494967,0 -3.85544647,-1.27378 -1.69457673,-1.27378 -1.75144173,-3.57112 h 3.2526775 q 0.216087,2.19499 2.3314647,2.19499 1.2396568,0 1.7741877,-0.8871 0.5459039,-0.89846 0.5459039,-2.19499 0,-1.30789 -0.6482609,-2.104 -0.6482609,-0.80748 -2.0130207,-0.80748 -0.8984668,0 -1.3875058,0.29569 -0.4890389,0.28433 -0.8188559,0.61415 z"
         style="font-style:normal;font-variant:normal;font-weight:bold;font-stretch:normal;font-size:23.2919px;font-family:Roboto;-inkscape-font-specification:'Roboto Bold'"
         id="path17" />
    </g>
  </g>
</svg>
