<?xml version="1.0" encoding="UTF-8"?>
<svg xmlns="http://www.w3.org/2000/svg" version="1" viewBox="0 0 26 26" enable-background="new 0 0 26 26">
    <path style="text-indent:0;text-align:start;line-height:normal;text-transform:none;block-progression:tb;-inkscape-font-specification:Bitstream Vera Sans" d="M 5 0 C 3.3 0 2 1.3 2 3 L 2 21 L 2 22 C 2 24.209804 3.7901961 26 6 26 L 24 26 L 24 24 L 6 24 C 4.8098039 24 4 23.190196 4 22 C 4 20.9 4.9 20 6 20 L 24 20 L 24 0 L 5 0 z M 13.1875 7.8125 C 14.5875 7.8125 15.5 8.8125 15.5 10.3125 C 15.4 11.9125 14.49375 12.90625 13.09375 12.90625 C 11.69375 12.90625 10.8125 11.90625 10.8125 10.40625 C 10.8125 8.90625 11.7875 7.8125 13.1875 7.8125 z M 5.09375 7.90625 L 6.1875 7.90625 C 6.2875 7.90625 6.3125 7.9 6.3125 8 L 7 9.90625 L 7.3125 11.09375 C 7.4125 10.69375 7.4875 10.30625 7.6875 9.90625 L 8.40625 8 C 8.40625 7.9 8.5 7.90625 8.5 7.90625 L 9.59375 7.90625 C 9.69375 7.90625 9.6875 8 9.6875 8 L 10 12.6875 C 10 12.7875 9.90625 12.90625 9.90625 12.90625 L 9 12.90625 C 8.9 12.90625 8.90625 12.8125 8.90625 12.8125 L 8.8125 10.8125 L 8.8125 9.6875 C 8.7125 10.0875 8.6 10.4125 8.5 10.8125 L 7.8125 12.8125 C 7.8125 12.9125 7.6875 12.90625 7.6875 12.90625 L 6.90625 12.90625 C 6.80625 12.90625 6.8125 12.9125 6.8125 12.8125 L 6.1875 10.8125 C 6.0875 10.4125 6.00625 9.9875 5.90625 9.6875 C 5.90625 10.0875 5.9125 10.5125 5.8125 10.8125 L 5.6875 12.6875 C 5.6875 12.7875 5.59375 12.8125 5.59375 12.8125 L 4.8125 12.8125 L 4.6875 12.8125 L 4.6875 12.6875 L 5 8 L 5.09375 7.90625 z M 16.96875 7.90625 C 17.19375 7.89375 17.4375 7.90625 17.6875 7.90625 C 18.3875 7.90625 18.79375 7.9875 19.09375 8.1875 C 19.39375 8.3875 19.59375 8.7875 19.59375 9.1875 C 19.59375 9.5875 19.4 9.9875 19 10.1875 C 19.4 10.3875 19.8125 10.80625 19.8125 11.40625 C 19.8125 11.80625 19.7125 12.2 19.3125 12.5 C 18.9125 12.8 18.3 13 17.5 13 C 17.1 13 16.80625 13.00625 16.40625 12.90625 C 16.30625 12.90625 16.3125 12.8125 16.3125 12.8125 L 16.3125 8.09375 C 16.3125 7.99375 16.30625 8 16.40625 8 C 16.55625 7.95 16.74375 7.91875 16.96875 7.90625 z M 20.75 7.90625 C 20.775 7.89375 20.8125 7.90625 20.8125 7.90625 L 21.6875 7.90625 C 21.7875 7.90625 21.8125 8 21.8125 8 L 21.8125 12.6875 C 21.8125 12.7875 21.6875 12.8125 21.6875 12.8125 L 20.8125 12.8125 C 20.7125 12.8125 20.6875 12.6875 20.6875 12.6875 L 20.6875 8 C 20.6875 7.95 20.725 7.91875 20.75 7.90625 z M 13.09375 8.8125 C 12.19375 8.8125 11.90625 9.70625 11.90625 10.40625 C 11.90625 11.20625 12.29375 12 13.09375 12 C 13.89375 12 14.3125 11.20625 14.3125 10.40625 C 14.3125 9.60625 13.89375 8.8125 13.09375 8.8125 z M 17.3125 8.8125 L 17.3125 9.90625 L 17.59375 9.90625 C 18.19375 9.80625 18.5 9.6125 18.5 9.3125 C 18.5 9.2125 18.4875 8.8125 17.6875 8.8125 L 17.3125 8.8125 z M 17.40625 10.6875 L 17.40625 12 L 17.6875 12 C 17.9875 12 18.59375 11.9125 18.59375 11.3125 C 18.69375 10.8125 18.0875 10.6875 17.6875 10.6875 L 17.40625 10.6875 z" overflow="visible" enable-background="accumulate" font-family="Bitstream Vera Sans" fill="#FF9900"/>
</svg>
